<svg id="visual" viewBox="0 0 700 200" width="700" height="200" xmlns="http://www.w3.org/2000/svg" xmlns:xlink="http://www.w3.org/1999/xlink" version="1.1"><rect x="0" y="0" width="700" height="200" fill="#fff"></rect><path d="M0 118L11.7 118.2C23.3 118.3 46.7 118.7 70 111.3C93.3 104 116.7 89 140 85.8C163.3 82.7 186.7 91.3 210 92.8C233.3 94.3 256.7 88.7 280 91.5C303.3 94.3 326.7 105.7 350 104.7C373.3 103.7 396.7 90.3 420 83C443.3 75.7 466.7 74.3 490 78.8C513.3 83.3 536.7 93.7 560 99.5C583.3 105.3 606.7 106.7 630 102.7C653.3 98.7 676.7 89.3 688.3 84.7L700 80L700 201L688.3 201C676.7 201 653.3 201 630 201C606.7 201 583.3 201 560 201C536.7 201 513.3 201 490 201C466.7 201 443.3 201 420 201C396.7 201 373.3 201 350 201C326.7 201 303.3 201 280 201C256.7 201 233.3 201 210 201C186.7 201 163.3 201 140 201C116.7 201 93.3 201 70 201C46.7 201 23.3 201 11.7 201L0 201Z" fill="#d6e0ff"></path><path d="M0 101L11.7 105.7C23.3 110.3 46.7 119.7 70 120.5C93.3 121.3 116.7 113.7 140 115.2C163.3 116.7 186.7 127.3 210 125.5C233.3 123.7 256.7 109.3 280 109C303.3 108.7 326.7 122.3 350 126.7C373.3 131 396.7 126 420 123C443.3 120 466.7 119 490 117C513.3 115 536.7 112 560 114.5C583.3 117 606.7 125 630 127.3C653.3 129.7 676.7 126.3 688.3 124.7L700 123L700 201L688.3 201C676.7 201 653.3 201 630 201C606.7 201 583.3 201 560 201C536.7 201 513.3 201 490 201C466.7 201 443.3 201 420 201C396.7 201 373.3 201 350 201C326.7 201 303.3 201 280 201C256.7 201 233.3 201 210 201C186.7 201 163.3 201 140 201C116.7 201 93.3 201 70 201C46.7 201 23.3 201 11.7 201L0 201Z" fill="#9caff6"></path><path d="M0 160L11.7 155.3C23.3 150.7 46.7 141.3 70 136.8C93.3 132.3 116.7 132.7 140 133C163.3 133.3 186.7 133.7 210 135.5C233.3 137.3 256.7 140.7 280 139C303.3 137.3 326.7 130.7 350 131C373.3 131.3 396.7 138.7 420 140.3C443.3 142 466.7 138 490 140C513.3 142 536.7 150 560 154.8C583.3 159.7 606.7 161.3 630 156.5C653.3 151.7 676.7 140.3 688.3 134.7L700 129L700 201L688.3 201C676.7 201 653.3 201 630 201C606.7 201 583.3 201 560 201C536.7 201 513.3 201 490 201C466.7 201 443.3 201 420 201C396.7 201 373.3 201 350 201C326.7 201 303.3 201 280 201C256.7 201 233.3 201 210 201C186.7 201 163.3 201 140 201C116.7 201 93.3 201 70 201C46.7 201 23.3 201 11.7 201L0 201Z" fill="#647fe9"></path><path d="M0 178L11.7 175.5C23.3 173 46.7 168 70 167.3C93.3 166.7 116.7 170.3 140 169C163.3 167.7 186.7 161.3 210 159C233.3 156.7 256.7 158.3 280 162.8C303.3 167.3 326.7 174.7 350 176.7C373.3 178.7 396.7 175.3 420 171.5C443.3 167.7 466.7 163.3 490 164.3C513.3 165.3 536.7 171.7 560 175.2C583.3 178.7 606.7 179.3 630 177.2C653.3 175 676.7 170 688.3 167.5L700 165L700 201L688.3 201C676.7 201 653.3 201 630 201C606.7 201 583.3 201 560 201C536.7 201 513.3 201 490 201C466.7 201 443.3 201 420 201C396.7 201 373.3 201 350 201C326.7 201 303.3 201 280 201C256.7 201 233.3 201 210 201C186.7 201 163.3 201 140 201C116.7 201 93.3 201 70 201C46.7 201 23.3 201 11.7 201L0 201Z" fill="#1d4ed8"></path></svg>